<svg width="800" height="152" viewBox="0 0 800 152" fill="none" xmlns="http://www.w3.org/2000/svg">
<path fill-rule="evenodd" clip-rule="evenodd" d="M0 0.957442V15.2965C0 15.6948 0.398307 16.0931 0.796615 16.0931H59.7461V135.585H0.796615C0.398307 135.585 0 135.983 0 136.382V150.721C0 151.119 0.398307 151.517 0.796615 151.517H134.628C135.026 151.517 135.424 151.119 135.424 150.721V136.382C135.424 135.983 135.026 135.585 134.628 135.585H75.6784V16.0931H134.628C135.026 16.0931 135.424 15.6948 135.424 15.2965V0.957442C135.424 0.559135 135.026 0.160828 134.628 0.160828H0.796615C0.398307 0.160828 0 0.559135 0 0.957442ZM98.3816 34.0175H94.3992C94.0008 34.0175 93.6025 34.4158 93.6025 34.8141V116.865C93.6025 117.264 94.0008 117.662 94.3992 117.662H108.738C108.742 117.662 108.745 117.662 108.749 117.662H134.628C135.026 117.662 135.424 117.264 135.424 116.865V102.526C135.424 102.128 135.026 101.73 134.628 101.73H109.535V49.9498H134.628C135.026 49.9498 135.424 49.5515 135.424 49.1532V34.8141C135.424 34.4158 135.026 34.0175 134.628 34.0175H108.738H98.3816ZM37.0426 34.0175H41.0258C41.4241 34.0175 41.8224 34.4158 41.8224 34.8141V116.865C41.8224 117.264 41.4241 117.662 41.0258 117.662H26.6868L26.6763 117.662H0.796614C0.398307 117.662 0 117.264 0 116.865V102.526C0 102.128 0.398307 101.73 0.796614 101.73H25.8901V49.9498H0.796614C0.398307 49.9498 0 49.5515 0 49.1532V34.8141C0 34.4158 0.398307 34.0175 0.796614 34.0175H26.6868H37.0426Z" fill="#00CA88"/>
<path d="M478.566 88.5851V134.789C478.566 135.386 478.168 135.585 477.769 135.585H463.43C462.833 135.585 462.634 135.187 462.634 134.789V88.5851C462.634 75.8393 456.858 63.2926 440.329 63.2926C426.189 63.2926 418.222 75.441 418.222 88.5851V134.789C418.222 135.386 417.824 135.585 417.426 135.585H403.087C402.489 135.585 402.29 135.187 402.29 134.789V51.5425C402.29 50.9451 402.688 50.7459 403.087 50.7459H415.633C416.231 50.7459 416.231 51.1442 416.43 51.5425L418.023 59.1104C418.222 60.1062 419.617 59.7078 419.816 59.3095C423.201 54.3307 430.57 49.1527 441.723 49.1527C466.418 49.1527 478.566 66.8774 478.566 88.5851ZM387.354 93.1657C387.354 119.255 372.019 137.179 345.731 137.179C319.442 137.179 304.107 119.255 304.107 93.1657C304.107 66.8774 319.442 49.1527 345.731 49.1527C372.019 49.1527 387.354 67.0765 387.354 93.1657ZM371.421 93.1657C371.421 75.6401 361.862 63.2926 345.731 63.2926C329.798 63.2926 320.04 75.6401 320.04 93.1657C320.04 110.691 329.798 123.039 345.731 123.039C361.862 123.039 371.421 110.691 371.421 93.1657ZM297.934 49.1527H289.37C281.006 49.1527 274.832 53.7332 269.056 59.3095C268.459 59.907 267.463 60.1062 267.264 59.1104L265.671 51.5425C265.472 50.9451 265.272 50.7459 264.874 50.7459H252.327C251.73 50.7459 251.531 51.1442 251.531 51.5425V134.789C251.531 135.386 251.929 135.585 252.327 135.585H266.667C267.264 135.585 267.463 135.187 267.463 134.789V88.5851C267.463 75.441 275.429 63.2926 289.569 63.2926H298.133C298.73 63.2926 298.929 62.8943 298.929 62.496V49.9493C298.73 49.3519 298.332 49.1527 297.934 49.1527ZM712.97 122.242V134.789C712.97 135.386 712.572 135.585 712.173 135.585H707.394C697.834 135.585 692.059 133.196 689.669 127.818C689.271 127.022 688.474 127.221 688.076 127.42C684.093 131.602 673.737 137.179 658.203 137.179C635.698 137.179 624.745 126.225 624.745 110.293C624.745 95.7546 636.893 84.8012 661.588 84.8012H680.309C684.093 84.8012 685.885 81.6147 685.885 79.2249C685.885 72.2545 684.292 63.0935 664.177 63.0935C649.838 63.0935 643.266 69.8647 643.266 78.4283C643.266 79.0257 642.868 79.2249 642.469 79.2249H628.13C627.533 79.2249 627.334 78.8266 627.334 78.4283C627.334 58.7121 645.258 48.9535 664.177 48.9535C687.279 48.9535 701.817 58.9112 701.817 79.2249V115.67C701.817 118.259 703.809 121.246 707.394 121.246H712.173C712.771 121.246 712.97 121.645 712.97 122.242ZM685.885 98.3436C685.885 97.7462 685.487 97.547 685.088 97.547H661.588C643.864 97.547 640.677 104.517 640.677 110.492C640.677 116.467 644.859 123.039 658.203 123.039C678.516 123.039 685.487 110.89 685.885 100.733V98.3436ZM534.528 63.2926C545.88 63.2926 554.045 68.6698 557.63 78.6274C557.829 79.2249 558.227 79.4241 558.626 79.4241H573.562C574.16 79.4241 574.558 79.2249 574.359 78.6274C569.778 60.1062 555.838 49.1527 534.528 49.1527C508.24 49.1527 493.104 66.8774 493.104 93.1657C493.104 119.255 508.24 137.179 534.528 137.179C555.838 137.179 569.778 126.225 574.359 107.704C574.558 107.106 573.961 106.907 573.562 106.907H558.626C558.028 106.907 557.829 107.306 557.63 107.704C553.846 117.662 545.88 123.039 534.528 123.039C518.596 123.039 509.037 110.691 509.037 93.1657C509.037 75.6401 518.596 63.2926 534.528 63.2926ZM228.23 16.0932H213.891C213.293 16.0932 213.094 16.4915 213.094 16.8898V134.789C213.094 135.386 213.493 135.585 213.891 135.585H228.23C228.827 135.585 229.027 135.187 229.027 134.789V16.8898C229.027 16.4915 228.628 16.0932 228.23 16.0932ZM616.181 121.246H611.401C607.817 121.246 605.825 118.259 605.825 115.67V16.8898C605.825 16.2924 605.427 16.0932 605.029 16.0932H590.69C590.092 16.0932 589.893 16.4915 589.893 16.8898V114.276C589.893 123.835 593.478 128.615 595.668 130.806C597.859 132.996 601.245 134.39 605.626 134.988C607.418 135.187 609.211 135.386 611.401 135.386H616.181C616.779 135.386 616.978 134.988 616.978 134.59V122.043C616.978 121.645 616.579 121.246 616.181 121.246ZM800 16.8898V134.789C800 135.386 799.602 135.585 799.203 135.585H786.657C786.059 135.585 786.059 135.187 785.86 134.789L784.267 128.018C783.868 127.022 783.072 127.221 782.674 127.619C778.093 132.2 767.14 137.179 758.775 137.179C734.279 137.179 718.944 119.255 718.944 93.1657C718.944 67.0765 734.279 49.1527 758.775 49.1527C770.525 49.1527 780.682 56.3222 782.674 58.7121C783.47 59.7078 784.267 59.1104 784.267 58.3138V16.8898C784.267 16.2924 784.665 16.0932 785.063 16.0932H799.402C799.801 16.0932 800 16.4915 800 16.8898ZM784.068 93.1657C784.068 75.6401 775.305 63.2926 760.169 63.2926C744.038 63.2926 734.478 75.6401 734.478 93.1657C734.478 110.691 744.038 123.039 760.169 123.039C775.504 123.039 784.068 110.691 784.068 93.1657Z" fill="#1C212B"/>
</svg>
